<svg xmlns="http://www.w3.org/2000/svg" xmlns:xlink="http://www.w3.org/1999/xlink" width="280" zoomAndPan="magnify" viewBox="0 0 210 50.249999" height="67" preserveAspectRatio="xMidYMid meet" version="1.2"><defs><clipPath id="d328e10047"><path d="M 3.015625 2.089844 L 47.351562 2.089844 L 47.351562 46.429688 L 3.015625 46.429688 Z M 3.015625 2.089844 "/></clipPath><clipPath id="55922bfc2f"><path d="M 3.015625 5.785156 L 3.015625 42.429688 C 3.015625 44.472656 4.667969 46.125 6.710938 46.125 L 43.355469 46.125 C 45.398438 46.125 47.050781 44.472656 47.050781 42.429688 L 47.050781 5.785156 C 47.050781 3.742188 45.398438 2.089844 43.355469 2.089844 L 6.710938 2.089844 C 4.667969 2.089844 3.015625 3.742188 3.015625 5.785156 Z M 3.015625 5.785156 "/></clipPath><clipPath id="48d17a5da3"><path d="M 6.808594 8.976562 L 41.542969 8.976562 L 41.542969 39.273438 L 6.808594 39.273438 Z M 6.808594 8.976562 "/></clipPath></defs><g id="820a50e87a"><g clip-rule="nonzero" clip-path="url(#d328e10047)"><g clip-rule="nonzero" clip-path="url(#55922bfc2f)"><path style=" stroke:none;fill-rule:nonzero;fill:#000000;fill-opacity:1;" d="M 47.042969 42.113281 C 47.042969 44.324219 45.25 46.117188 43.039062 46.117188 L 7.015625 46.117188 C 4.808594 46.117188 3.015625 44.324219 3.015625 42.113281 L 3.015625 6.09375 C 3.015625 3.882812 4.808594 2.089844 7.015625 2.089844 L 43.039062 2.089844 C 45.25 2.089844 47.042969 3.882812 47.042969 6.09375 Z M 47.042969 42.113281 "/></g></g><g style="fill:#000000;fill-opacity:1;"><g transform="translate(55.159102, 43.269043)"><path style="stroke:none" d="M 11.984375 0.40625 C 8.222656 0.40625 5.523438 -0.625 3.890625 -2.6875 C 2.265625 -4.757812 1.453125 -7.84375 1.453125 -11.9375 L 1.453125 -26.609375 C 1.453125 -29.972656 2.414062 -32.535156 4.34375 -34.296875 C 6.269531 -36.066406 8.96875 -36.953125 12.4375 -36.953125 C 19.457031 -36.953125 22.96875 -33.503906 22.96875 -26.609375 L 22.96875 -23.96875 C 22.96875 -21.300781 22.9375 -19.140625 22.875 -17.484375 L 10.1875 -17.484375 L 10.1875 -10.390625 C 10.1875 -9.117188 10.316406 -8.125 10.578125 -7.40625 C 10.847656 -6.695312 11.414062 -6.34375 12.28125 -6.34375 C 12.945312 -6.34375 13.421875 -6.539062 13.703125 -6.9375 C 13.984375 -7.34375 14.148438 -7.800781 14.203125 -8.3125 C 14.253906 -8.832031 14.28125 -9.59375 14.28125 -10.59375 L 14.28125 -14.125 L 22.96875 -14.125 L 22.96875 -12.03125 C 22.96875 -7.769531 22.144531 -4.628906 20.5 -2.609375 C 18.851562 -0.597656 16.015625 0.40625 11.984375 0.40625 Z M 14.28125 -21.828125 L 14.28125 -26.515625 C 14.28125 -29.148438 13.628906 -30.46875 12.328125 -30.46875 C 10.867188 -30.46875 10.140625 -29.148438 10.140625 -26.515625 L 10.140625 -21.828125 Z M 14.28125 -21.828125 "/></g></g><g style="fill:#000000;fill-opacity:1;"><g transform="translate(79.525782, 43.269043)"><path style="stroke:none" d="M 1.75 -36.546875 L 10.484375 -36.546875 L 10.484375 -32.515625 C 10.921875 -33.941406 11.675781 -35.046875 12.75 -35.828125 C 13.832031 -36.609375 15.175781 -37 16.78125 -37 L 16.78125 -29.71875 C 15.550781 -29.71875 14.191406 -29.539062 12.703125 -29.1875 C 11.222656 -28.84375 10.484375 -28.4375 10.484375 -27.96875 L 10.484375 0 L 1.75 0 Z M 1.75 -36.546875 "/></g></g><g style="fill:#000000;fill-opacity:1;"><g transform="translate(96.702297, 43.269043)"><path style="stroke:none" d="M 8.390625 0.40625 C 5.554688 0.40625 3.613281 -0.535156 2.5625 -2.421875 C 1.519531 -4.304688 1 -6.992188 1 -10.484375 C 1 -13.347656 1.375 -15.546875 2.125 -17.078125 C 2.875 -18.609375 3.910156 -19.726562 5.234375 -20.4375 C 6.566406 -21.15625 8.597656 -21.953125 11.328125 -22.828125 L 13.734375 -23.625 L 13.734375 -27.359375 C 13.734375 -28.328125 13.539062 -29.066406 13.15625 -29.578125 C 12.769531 -30.097656 12.3125 -30.359375 11.78125 -30.359375 C 11.320312 -30.359375 10.914062 -30.140625 10.5625 -29.703125 C 10.207031 -29.273438 10.03125 -28.695312 10.03125 -27.96875 L 10.03125 -25.765625 L 1.546875 -25.765625 L 1.546875 -26.96875 C 1.546875 -30.5625 2.382812 -33.125 4.0625 -34.65625 C 5.75 -36.1875 8.488281 -36.953125 12.28125 -36.953125 C 15.3125 -36.953125 17.773438 -36.160156 19.671875 -34.578125 C 21.566406 -32.992188 22.515625 -30.753906 22.515625 -27.859375 L 22.515625 0 L 13.828125 0 L 13.828125 -4.34375 C 13.398438 -2.84375 12.710938 -1.675781 11.765625 -0.84375 C 10.816406 -0.0078125 9.691406 0.40625 8.390625 0.40625 Z M 11.828125 -6.390625 C 12.492188 -6.390625 12.96875 -6.664062 13.25 -7.21875 C 13.539062 -7.769531 13.6875 -8.441406 13.6875 -9.234375 L 13.6875 -19.421875 C 12.382812 -18.921875 11.425781 -18.285156 10.8125 -17.515625 C 10.195312 -16.753906 9.890625 -15.691406 9.890625 -14.328125 L 9.890625 -9.640625 C 9.890625 -7.472656 10.535156 -6.390625 11.828125 -6.390625 Z M 11.828125 -6.390625 "/></g></g><g style="fill:#000000;fill-opacity:1;"><g transform="translate(120.819311, 43.269043)"><path style="stroke:none" d="M 11.78125 0.40625 C 4.5625 0.40625 0.953125 -3.257812 0.953125 -10.59375 L 1 -13.484375 L 9.734375 -13.484375 L 9.78125 -9.1875 C 9.78125 -8.320312 9.945312 -7.664062 10.28125 -7.21875 C 10.613281 -6.769531 11.164062 -6.546875 11.9375 -6.546875 C 13.101562 -6.546875 13.6875 -7.492188 13.6875 -9.390625 C 13.6875 -10.785156 13.410156 -11.878906 12.859375 -12.671875 C 12.304688 -13.472656 11.429688 -14.328125 10.234375 -15.234375 L 5.59375 -18.828125 C 4 -20.054688 2.847656 -21.328125 2.140625 -22.640625 C 1.441406 -23.960938 1.09375 -25.820312 1.09375 -28.21875 C 1.09375 -30.082031 1.582031 -31.671875 2.5625 -32.984375 C 3.550781 -34.296875 4.859375 -35.285156 6.484375 -35.953125 C 8.117188 -36.617188 9.9375 -36.953125 11.9375 -36.953125 C 19.03125 -36.953125 22.578125 -33.421875 22.578125 -26.359375 L 22.578125 -25.671875 L 13.53125 -25.671875 L 13.53125 -27.0625 C 13.53125 -27.925781 13.390625 -28.664062 13.109375 -29.28125 C 12.828125 -29.90625 12.351562 -30.21875 11.6875 -30.21875 C 11.082031 -30.21875 10.625 -30.039062 10.3125 -29.6875 C 10 -29.332031 9.84375 -28.859375 9.84375 -28.265625 C 9.84375 -26.929688 10.359375 -25.898438 11.390625 -25.171875 L 16.78125 -21.21875 C 18.707031 -19.789062 20.1875 -18.234375 21.21875 -16.546875 C 22.25 -14.867188 22.765625 -12.75 22.765625 -10.1875 C 22.765625 -6.789062 21.800781 -4.175781 19.875 -2.34375 C 17.945312 -0.507812 15.25 0.40625 11.78125 0.40625 Z M 11.78125 0.40625 "/></g></g><g style="fill:#000000;fill-opacity:1;"><g transform="translate(144.536877, 43.269043)"><path style="stroke:none" d="M 11.984375 0.40625 C 8.222656 0.40625 5.523438 -0.625 3.890625 -2.6875 C 2.265625 -4.757812 1.453125 -7.84375 1.453125 -11.9375 L 1.453125 -26.609375 C 1.453125 -29.972656 2.414062 -32.535156 4.34375 -34.296875 C 6.269531 -36.066406 8.96875 -36.953125 12.4375 -36.953125 C 19.457031 -36.953125 22.96875 -33.503906 22.96875 -26.609375 L 22.96875 -23.96875 C 22.96875 -21.300781 22.9375 -19.140625 22.875 -17.484375 L 10.1875 -17.484375 L 10.1875 -10.390625 C 10.1875 -9.117188 10.316406 -8.125 10.578125 -7.40625 C 10.847656 -6.695312 11.414062 -6.34375 12.28125 -6.34375 C 12.945312 -6.34375 13.421875 -6.539062 13.703125 -6.9375 C 13.984375 -7.34375 14.148438 -7.800781 14.203125 -8.3125 C 14.253906 -8.832031 14.28125 -9.59375 14.28125 -10.59375 L 14.28125 -14.125 L 22.96875 -14.125 L 22.96875 -12.03125 C 22.96875 -7.769531 22.144531 -4.628906 20.5 -2.609375 C 18.851562 -0.597656 16.015625 0.40625 11.984375 0.40625 Z M 14.28125 -21.828125 L 14.28125 -26.515625 C 14.28125 -29.148438 13.628906 -30.46875 12.328125 -30.46875 C 10.867188 -30.46875 10.140625 -29.148438 10.140625 -26.515625 L 10.140625 -21.828125 Z M 14.28125 -21.828125 "/></g></g><g style="fill:#000000;fill-opacity:1;"><g transform="translate(168.903558, 43.269043)"><path style="stroke:none" d="M 9.28125 0.40625 C 6.988281 0.40625 5.410156 -0.078125 4.546875 -1.046875 C 3.679688 -2.015625 3.25 -3.5625 3.25 -5.6875 L 3.25 -28.515625 L 0.796875 -28.515625 L 0.796875 -35.15625 L 3.25 -35.15625 L 3.25 -42.890625 L 11.734375 -42.890625 L 11.734375 -35.15625 L 14.234375 -35.15625 L 14.234375 -28.515625 L 11.734375 -28.515625 L 11.734375 -7.984375 C 11.734375 -7.359375 11.78125 -6.894531 11.875 -6.59375 C 11.976562 -6.289062 12.25 -6.140625 12.6875 -6.140625 C 13.019531 -6.140625 13.332031 -6.15625 13.625 -6.1875 C 13.925781 -6.21875 14.128906 -6.234375 14.234375 -6.234375 L 14.234375 -0.25 C 13.734375 -0.113281 13.007812 0.0234375 12.0625 0.171875 C 11.113281 0.328125 10.1875 0.40625 9.28125 0.40625 Z M 9.28125 0.40625 "/></g></g><g style="fill:#000000;fill-opacity:1;"><g transform="translate(184.132729, 43.269043)"><path style="stroke:none" d="M 12.390625 0.40625 C 5.097656 0.40625 1.453125 -3.375 1.453125 -10.9375 L 1.453125 -25.625 C 1.453125 -29.082031 2.425781 -31.832031 4.375 -33.875 C 6.320312 -35.925781 8.992188 -36.953125 12.390625 -36.953125 C 15.785156 -36.953125 18.457031 -35.925781 20.40625 -33.875 C 22.351562 -31.832031 23.328125 -29.082031 23.328125 -25.625 L 23.328125 -10.9375 C 23.328125 -3.375 19.679688 0.40625 12.390625 0.40625 Z M 12.390625 -6.34375 C 13.085938 -6.34375 13.601562 -6.59375 13.9375 -7.09375 C 14.269531 -7.59375 14.4375 -8.273438 14.4375 -9.140625 L 14.4375 -27.015625 C 14.4375 -29.148438 13.753906 -30.21875 12.390625 -30.21875 C 11.023438 -30.21875 10.34375 -29.148438 10.34375 -27.015625 L 10.34375 -9.140625 C 10.34375 -8.273438 10.503906 -7.59375 10.828125 -7.09375 C 11.160156 -6.59375 11.679688 -6.34375 12.390625 -6.34375 Z M 12.390625 -6.34375 "/></g></g><g clip-rule="nonzero" clip-path="url(#48d17a5da3)"><path style=" stroke:none;fill-rule:nonzero;fill:#fefefe;fill-opacity:1;" d="M 30.703125 10.003906 C 30.027344 9.316406 29.207031 8.972656 28.242188 8.976562 C 27.28125 8.972656 26.460938 9.3125 25.785156 10 L 14.335938 21.445312 L 14.324219 21.453125 L 14.316406 21.464844 L 9.417969 26.363281 C 9.09375 26.691406 8.84375 27.066406 8.667969 27.492188 C 8.488281 27.917969 8.402344 28.359375 8.402344 28.820312 C 8.402344 29.28125 8.488281 29.726562 8.667969 30.148438 C 8.84375 30.574219 9.09375 30.953125 9.417969 31.277344 L 14.898438 36.753906 L 7.972656 36.753906 C 7.816406 36.753906 7.671875 36.785156 7.527344 36.84375 C 7.386719 36.902344 7.261719 36.984375 7.152344 37.09375 C 7.042969 37.203125 6.960938 37.328125 6.902344 37.46875 C 6.84375 37.609375 6.8125 37.757812 6.8125 37.910156 C 6.8125 38.066406 6.84375 38.210938 6.902344 38.355469 C 6.960938 38.496094 7.042969 38.621094 7.152344 38.730469 C 7.261719 38.839844 7.386719 38.921875 7.527344 38.980469 C 7.671875 39.039062 7.816406 39.070312 7.972656 39.070312 L 39.222656 39.070312 C 39.375 39.070312 39.523438 39.039062 39.664062 38.980469 C 39.808594 38.921875 39.933594 38.839844 40.039062 38.730469 C 40.148438 38.621094 40.234375 38.496094 40.292969 38.355469 C 40.351562 38.210938 40.378906 38.066406 40.378906 37.910156 C 40.378906 37.757812 40.351562 37.609375 40.292969 37.46875 C 40.234375 37.328125 40.148438 37.203125 40.039062 37.09375 C 39.933594 36.984375 39.808594 36.902344 39.664062 36.84375 C 39.523438 36.785156 39.375 36.753906 39.222656 36.753906 L 28.496094 36.753906 L 40.507812 24.730469 C 40.835938 24.40625 41.089844 24.03125 41.269531 23.605469 C 41.445312 23.179688 41.535156 22.734375 41.535156 22.273438 C 41.535156 21.8125 41.445312 21.367188 41.269531 20.941406 C 41.089844 20.515625 40.835938 20.136719 40.507812 19.8125 Z M 18.171875 36.753906 L 11.054688 29.640625 C 10.949219 29.53125 10.867188 29.40625 10.808594 29.261719 C 10.75 29.121094 10.722656 28.972656 10.722656 28.820312 C 10.722656 28.667969 10.75 28.519531 10.808594 28.378906 C 10.867188 28.238281 10.949219 28.113281 11.054688 28.003906 L 15.148438 23.90625 L 26.605469 35.363281 L 25.21875 36.753906 Z M 38.875 23.089844 L 28.242188 33.730469 L 16.785156 22.273438 L 27.429688 11.632812 C 27.535156 11.523438 27.660156 11.4375 27.804688 11.382812 C 27.945312 11.324219 28.09375 11.292969 28.246094 11.292969 C 28.398438 11.292969 28.546875 11.324219 28.6875 11.382812 C 28.828125 11.4375 28.953125 11.523438 29.0625 11.632812 L 38.882812 21.453125 C 38.988281 21.5625 39.070312 21.6875 39.128906 21.828125 C 39.183594 21.972656 39.214844 22.117188 39.214844 22.273438 C 39.210938 22.425781 39.183594 22.574219 39.125 22.714844 C 39.066406 22.855469 38.984375 22.980469 38.875 23.089844 Z M 38.875 23.089844 "/></g></g></svg>