<svg width="48" height="48" viewBox="0 0 48 48" fill="none" xmlns="http://www.w3.org/2000/svg">
  <rect width="48" height="48" rx="24" fill="url(#paint0_linear)" fill-opacity="0.1"/>
  <path d="M32 16H16C14.8954 16 14 16.8954 14 18V30C14 31.1046 14.8954 32 16 32H32C33.1046 32 34 31.1046 34 30V18C34 16.8954 33.1046 16 32 16Z" stroke="url(#paint1_linear)" stroke-width="2" stroke-linecap="round" stroke-linejoin="round"/>
  <path d="M22 24C22 25.1046 21.1046 26 20 26C18.8954 26 18 25.1046 18 24C18 22.8954 18.8954 22 20 22C21.1046 22 22 22.8954 22 24Z" stroke="url(#paint2_linear)" stroke-width="2"/>
  <path d="M30 20L26 28" stroke="url(#paint3_linear)" stroke-width="2" stroke-linecap="round"/>
  <defs>
    <linearGradient id="paint0_linear" x1="0" y1="0" x2="48" y2="48" gradientUnits="userSpaceOnUse">
      <stop stop-color="#8B5CF6"/>
      <stop offset="1" stop-color="#EC4899"/>
    </linearGradient>
    <linearGradient id="paint1_linear" x1="14" y1="16" x2="34" y2="32" gradientUnits="userSpaceOnUse">
      <stop stop-color="#8B5CF6"/>
      <stop offset="1" stop-color="#EC4899"/>
    </linearGradient>
    <linearGradient id="paint2_linear" x1="18" y1="22" x2="22" y2="26" gradientUnits="userSpaceOnUse">
      <stop stop-color="#8B5CF6"/>
      <stop offset="1" stop-color="#EC4899"/>
    </linearGradient>
    <linearGradient id="paint3_linear" x1="26" y1="20" x2="30" y2="28" gradientUnits="userSpaceOnUse">
      <stop stop-color="#8B5CF6"/>
      <stop offset="1" stop-color="#EC4899"/>
    </linearGradient>
  </defs>
</svg> 