<svg xmlns="http://www.w3.org/2000/svg" xmlns:xlink="http://www.w3.org/1999/xlink" width="375" zoomAndPan="magnify" viewBox="0 0 281.25 281.249989" height="375" preserveAspectRatio="xMidYMid meet" version="1.2"><defs><clipPath id="6f3ce874e4"><path d="M 1.488281 2.113281 L 279.746094 2.113281 L 279.746094 280.375 L 1.488281 280.375 Z M 1.488281 2.113281 "/></clipPath><clipPath id="9ad82063b0"><path d="M 1.488281 5.855469 L 1.488281 276.761719 C 1.488281 278.828125 3.164062 280.503906 5.230469 280.503906 L 276.136719 280.503906 C 278.203125 280.503906 279.875 278.828125 279.875 276.761719 L 279.875 5.855469 C 279.875 3.789062 278.203125 2.113281 276.136719 2.113281 L 5.230469 2.113281 C 3.164062 2.113281 1.488281 3.789062 1.488281 5.855469 Z M 1.488281 5.855469 "/></clipPath><clipPath id="5ac6b7216b"><path d="M 25.476562 45.648438 L 246.140625 45.648438 L 246.140625 237 L 25.476562 237 Z M 25.476562 45.648438 "/></clipPath></defs><g id="cfc4188006"><g clip-rule="nonzero" clip-path="url(#6f3ce874e4)"><g clip-rule="nonzero" clip-path="url(#9ad82063b0)"><path style=" stroke:none;fill-rule:nonzero;fill:#000000;fill-opacity:1;" d="M 279.746094 255.078125 C 279.746094 269.039062 268.414062 280.375 254.449219 280.375 L 26.785156 280.375 C 12.820312 280.375 1.488281 269.039062 1.488281 255.078125 L 1.488281 27.410156 C 1.488281 13.449219 12.820312 2.113281 26.785156 2.113281 L 254.449219 2.113281 C 268.414062 2.113281 279.746094 13.449219 279.746094 27.410156 Z M 279.746094 255.078125 "/></g></g><g clip-rule="nonzero" clip-path="url(#5ac6b7216b)"><path style=" stroke:none;fill-rule:nonzero;fill:#fefefe;fill-opacity:1;" d="M 177.28125 52.183594 C 176.261719 51.144531 175.148438 50.214844 173.945312 49.398438 C 172.738281 48.582031 171.464844 47.894531 170.121094 47.332031 C 168.777344 46.773438 167.394531 46.351562 165.964844 46.066406 C 164.539062 45.78125 163.097656 45.644531 161.640625 45.648438 C 160.191406 45.644531 158.753906 45.78125 157.328125 46.066406 C 155.90625 46.347656 154.523438 46.769531 153.183594 47.328125 C 151.84375 47.886719 150.574219 48.574219 149.371094 49.386719 C 148.167969 50.199219 147.058594 51.125 146.042969 52.160156 L 73.320312 124.839844 L 73.238281 124.890625 L 73.179688 124.972656 L 42.082031 156.097656 C 41.570312 156.609375 41.085938 157.144531 40.628906 157.703125 C 40.171875 158.261719 39.738281 158.839844 39.339844 159.441406 C 38.9375 160.042969 38.566406 160.660156 38.226562 161.296875 C 37.882812 161.933594 37.574219 162.585938 37.296875 163.253906 C 37.023438 163.921875 36.777344 164.601562 36.570312 165.292969 C 36.359375 165.984375 36.183594 166.683594 36.042969 167.394531 C 35.902344 168.101562 35.796875 168.816406 35.726562 169.535156 C 35.652344 170.253906 35.617188 170.976562 35.617188 171.699219 C 35.617188 172.421875 35.652344 173.140625 35.726562 173.859375 C 35.796875 174.578125 35.902344 175.292969 36.042969 176.003906 C 36.183594 176.710938 36.359375 177.410156 36.570312 178.101562 C 36.777344 178.792969 37.023438 179.472656 37.296875 180.140625 C 37.574219 180.808594 37.882812 181.460938 38.226562 182.097656 C 38.566406 182.734375 38.9375 183.355469 39.339844 183.957031 C 39.738281 184.554688 40.171875 185.136719 40.628906 185.695312 C 41.085938 186.253906 41.570312 186.789062 42.082031 187.296875 L 76.886719 222.085938 L 32.886719 222.085938 C 32.402344 222.085938 31.925781 222.132812 31.453125 222.226562 C 30.980469 222.320312 30.519531 222.460938 30.074219 222.644531 C 29.628906 222.832031 29.203125 223.058594 28.800781 223.324219 C 28.402344 223.59375 28.027344 223.898438 27.6875 224.238281 C 27.347656 224.582031 27.042969 224.953125 26.773438 225.351562 C 26.503906 225.753906 26.277344 226.179688 26.09375 226.625 C 25.910156 227.070312 25.769531 227.53125 25.675781 228.003906 C 25.582031 228.476562 25.535156 228.957031 25.535156 229.4375 C 25.535156 229.921875 25.582031 230.398438 25.675781 230.871094 C 25.769531 231.34375 25.910156 231.804688 26.09375 232.25 C 26.277344 232.695312 26.503906 233.121094 26.773438 233.523438 C 27.042969 233.921875 27.347656 234.292969 27.6875 234.636719 C 28.027344 234.976562 28.402344 235.28125 28.800781 235.550781 C 29.203125 235.820312 29.628906 236.046875 30.074219 236.230469 C 30.519531 236.414062 30.980469 236.554688 31.453125 236.648438 C 31.925781 236.742188 32.402344 236.789062 32.886719 236.789062 L 231.378906 236.789062 C 231.863281 236.789062 232.339844 236.742188 232.8125 236.648438 C 233.289062 236.554688 233.746094 236.414062 234.191406 236.230469 C 234.640625 236.046875 235.0625 235.820312 235.464844 235.550781 C 235.867188 235.28125 236.238281 234.976562 236.578125 234.636719 C 236.917969 234.292969 237.222656 233.921875 237.492188 233.523438 C 237.761719 233.121094 237.988281 232.695312 238.171875 232.25 C 238.355469 231.804688 238.496094 231.34375 238.589844 230.871094 C 238.683594 230.398438 238.730469 229.921875 238.730469 229.4375 C 238.730469 228.957031 238.683594 228.476562 238.589844 228.003906 C 238.496094 227.53125 238.355469 227.070312 238.171875 226.625 C 237.988281 226.179688 237.761719 225.753906 237.492188 225.351562 C 237.222656 224.953125 236.917969 224.582031 236.578125 224.238281 C 236.238281 223.898438 235.867188 223.59375 235.464844 223.324219 C 235.0625 223.058594 234.640625 222.832031 234.191406 222.644531 C 233.746094 222.460938 233.289062 222.320312 232.8125 222.226562 C 232.339844 222.132812 231.863281 222.085938 231.378906 222.085938 L 163.246094 222.085938 L 239.546875 145.726562 C 240.0625 145.214844 240.550781 144.683594 241.015625 144.125 C 241.476562 143.566406 241.910156 142.988281 242.316406 142.386719 C 242.722656 141.785156 243.097656 141.167969 243.441406 140.527344 C 243.785156 139.890625 244.09375 139.238281 244.375 138.570312 C 244.652344 137.902344 244.898438 137.21875 245.109375 136.527344 C 245.324219 135.835938 245.5 135.132812 245.640625 134.421875 C 245.785156 133.710938 245.890625 132.996094 245.964844 132.273438 C 246.035156 131.554688 246.070312 130.832031 246.070312 130.105469 C 246.070312 129.382812 246.035156 128.660156 245.964844 127.9375 C 245.890625 127.21875 245.785156 126.5 245.640625 125.789062 C 245.5 125.082031 245.324219 124.378906 245.109375 123.6875 C 244.898438 122.992188 244.652344 122.3125 244.375 121.644531 C 244.09375 120.976562 243.785156 120.320312 243.441406 119.683594 C 243.097656 119.046875 242.722656 118.425781 242.316406 117.828125 C 241.910156 117.226562 241.476562 116.644531 241.015625 116.089844 C 240.550781 115.53125 240.0625 114.996094 239.546875 114.488281 Z M 97.675781 222.085938 L 52.476562 176.902344 C 52.140625 176.558594 51.84375 176.183594 51.578125 175.78125 C 51.316406 175.378906 51.09375 174.957031 50.910156 174.511719 C 50.730469 174.0625 50.59375 173.605469 50.5 173.132812 C 50.40625 172.660156 50.359375 172.183594 50.359375 171.703125 C 50.359375 171.21875 50.40625 170.742188 50.5 170.269531 C 50.59375 169.800781 50.730469 169.339844 50.910156 168.894531 C 51.09375 168.449219 51.316406 168.023438 51.578125 167.621094 C 51.84375 167.21875 52.140625 166.84375 52.476562 166.5 L 78.464844 140.484375 L 151.246094 213.265625 L 142.425781 222.085938 Z M 229.175781 135.292969 L 161.640625 202.882812 L 88.863281 130.101562 L 156.46875 62.511719 C 156.808594 62.171875 157.179688 61.867188 157.578125 61.601562 C 157.980469 61.335938 158.402344 61.109375 158.847656 60.925781 C 159.292969 60.742188 159.753906 60.601562 160.226562 60.507812 C 160.699219 60.414062 161.175781 60.367188 161.65625 60.367188 C 162.140625 60.367188 162.617188 60.414062 163.089844 60.507812 C 163.5625 60.601562 164.019531 60.742188 164.464844 60.925781 C 164.910156 61.109375 165.332031 61.335938 165.734375 61.601562 C 166.136719 61.867188 166.507812 62.171875 166.847656 62.511719 L 229.21875 124.890625 C 229.554688 125.234375 229.855469 125.609375 230.117188 126.011719 C 230.378906 126.417969 230.601562 126.84375 230.78125 127.289062 C 230.960938 127.734375 231.097656 128.195312 231.1875 128.667969 C 231.28125 129.140625 231.324219 129.617188 231.324219 130.101562 C 231.320312 130.582031 231.273438 131.058594 231.175781 131.53125 C 231.082031 132.003906 230.941406 132.460938 230.757812 132.90625 C 230.574219 133.351562 230.347656 133.777344 230.082031 134.175781 C 229.816406 134.578125 229.511719 134.949219 229.175781 135.292969 Z M 229.175781 135.292969 "/></g></g></svg>